<?xml version="1.0" encoding="UTF-8"?>
<svg version="1.1" xmlns="http://www.w3.org/2000/svg" width="951" height="151">
<path d="M0 0 C30 0 30 0 37 4 C41.73915085 9.10666504 41.60015985 13.971122 41.56640625 20.5859375 C41.57570412 22.10956406 41.57570412 22.10956406 41.58518982 23.66397095 C41.59227605 25.80722091 41.58913497 27.95052606 41.57641602 30.09375 C41.56257289 33.35781217 41.59661389 36.61899313 41.63476562 39.8828125 C41.63571714 41.97135486 41.63385627 44.05990079 41.62890625 46.1484375 C41.64216446 47.11639252 41.65542267 48.08434753 41.66908264 49.08163452 C41.58375806 55.35177394 40.56237023 60.42692008 36 65 C30 68 30 68 0 68 C0 45.56 0 23.12 0 0 Z M17 13 C17 26.86 17 40.72 17 55 C18.98 55 20.96 55 23 55 C25.41009173 51.27596552 25.29004429 47.59814637 25.265625 43.3125 C25.26849518 42.20322144 25.26849518 42.20322144 25.27142334 41.0715332 C25.27278135 39.51155252 25.26911176 37.95156039 25.26074219 36.39160156 C25.25003685 34.00820453 25.26065011 31.62556118 25.2734375 29.2421875 C25.27211584 27.72395668 25.2695533 26.20572632 25.265625 24.6875 C25.26967346 23.97698486 25.27372192 23.26646973 25.27789307 22.53442383 C25.2431926 18.86038759 25.02156619 16.12369115 23 13 C21.02 13 19.04 13 17 13 Z " fill="#000000" transform="translate(604,17)"/>
<path d="M0 0 C30 0 30 0 37 4 C41.73915085 9.10666504 41.60015985 13.971122 41.56640625 20.5859375 C41.57570412 22.10956406 41.57570412 22.10956406 41.58518982 23.66397095 C41.59227605 25.80722091 41.58913497 27.95052606 41.57641602 30.09375 C41.56257289 33.35781217 41.59661389 36.61899313 41.63476562 39.8828125 C41.63571714 41.97135486 41.63385627 44.05990079 41.62890625 46.1484375 C41.64216446 47.11639252 41.65542267 48.08434753 41.66908264 49.08163452 C41.58375806 55.35177394 40.56237023 60.42692008 36 65 C30 68 30 68 0 68 C0 45.56 0 23.12 0 0 Z M17 13 C17 26.86 17 40.72 17 55 C18.98 55 20.96 55 23 55 C25.41009173 51.27596552 25.29004429 47.59814637 25.265625 43.3125 C25.26849518 42.20322144 25.26849518 42.20322144 25.27142334 41.0715332 C25.27278135 39.51155252 25.26911176 37.95156039 25.26074219 36.39160156 C25.25003685 34.00820453 25.26065011 31.62556118 25.2734375 29.2421875 C25.27211584 27.72395668 25.2695533 26.20572632 25.265625 24.6875 C25.26967346 23.97698486 25.27372192 23.26646973 25.27789307 22.53442383 C25.2431926 18.86038759 25.02156619 16.12369115 23 13 C21.02 13 19.04 13 17 13 Z " fill="#000000" transform="translate(354,17)"/>
<path d="M0 0 C5.61 0 11.22 0 17 0 C17 11.55 17 23.1 17 35 C23.14160664 30.90396385 23.14160664 30.90396385 23.77294922 26.6784668 C23.78342285 25.44781494 23.79389648 24.21716309 23.8046875 22.94921875 C23.82524704 21.96100883 23.82524704 21.96100883 23.84622192 20.95283508 C23.88339609 18.86368734 23.87981713 16.77693033 23.875 14.6875 C23.89313626 13.26493702 23.91394191 11.8424054 23.9375 10.41992188 C23.99422963 6.94523197 23.99574712 3.47672592 24 0 C29.28 0 34.56 0 40 0 C40.06885239 5.21493112 40.12858954 10.42828712 40.16479492 15.64331055 C40.17988641 17.41745343 40.20036191 19.19155898 40.22631836 20.96557617 C40.26268641 23.51490487 40.27972238 26.06374059 40.29296875 28.61328125 C40.30845261 29.40712723 40.32393646 30.20097321 40.33988953 31.01887512 C40.34156781 36.50377804 40.34156781 36.50377804 38.60668945 39.02416992 C37 40 37 40 35 40 C35.27263672 40.74161377 35.54527344 41.48322754 35.82617188 42.24731445 C37.05576184 45.60057445 38.2779614 48.95648108 39.5 52.3125 C39.92925781 53.47974609 40.35851562 54.64699219 40.80078125 55.84960938 C41.20683594 56.96787109 41.61289062 58.08613281 42.03125 59.23828125 C42.59682617 60.7857605 42.59682617 60.7857605 43.17382812 62.36450195 C44 65 44 65 44 68 C38.39 68 32.78 68 27 68 C25.76302083 65.00520833 24.52604167 62.01041667 23.2890625 59.015625 C22.26692415 56.62444074 21.19786405 54.30616817 20 52 C17.14206684 54.85793316 17.59200059 57.14665584 17.375 61.125 C17.25125 63.39375 17.1275 65.6625 17 68 C11.39 68 5.78 68 0 68 C0 45.56 0 23.12 0 0 Z " fill="#000000" transform="translate(220,17)"/>
<path d="M0 0 C5.61 0 11.22 0 17 0 C21.5703125 5.0625 21.5703125 5.0625 23 9 C23.33 6.03 23.66 3.06 24 0 C29.28 0 34.56 0 40 0 C40 22.44 40 44.88 40 68 C34.72 68 29.44 68 24 68 C23.99742188 65.66164063 23.99484375 63.32328125 23.9921875 60.9140625 C23.96928793 58.61686222 23.93628349 56.3200099 23.90234375 54.02294922 C23.88431971 52.44230508 23.87659028 50.86150519 23.87988281 49.28076172 C23.88277983 46.9906684 23.84706715 44.70371551 23.8046875 42.4140625 C23.81378143 41.72196686 23.82287537 41.02987122 23.83224487 40.31680298 C23.62311373 33.04973781 21.29398306 31.15663844 17 24 C16.67 38.52 16.34 53.04 16 68 C10.72 68 5.44 68 0 68 C0 45.56 0 23.12 0 0 Z " fill="#000000" transform="translate(91,17)"/>
<path d="M0 0 C1.24330078 -0.0299707 1.24330078 -0.0299707 2.51171875 -0.06054688 C8.00854863 -0.05617738 11.1388003 0.80428004 15.5 4.4375 C21.05191403 10.28951749 20.66566931 16.18383699 20.703125 23.83203125 C20.70882507 24.73821701 20.71452515 25.64440277 20.72039795 26.57804871 C20.72982361 28.49188071 20.73637223 30.40572876 20.74023438 32.31958008 C20.74993209 35.22962104 20.78097533 38.13895291 20.8125 41.04882812 C20.81903177 42.91405834 20.82428156 44.77929356 20.828125 46.64453125 C20.8404718 47.50625443 20.8528186 48.3679776 20.86553955 49.2558136 C20.84375816 55.23718015 20.29739137 61.35107137 16.08331299 66.00056458 C10.79222677 70.5936276 6.31409987 70.67054437 -0.3125 70.75 C-1.10720703 70.77900391 -1.90191406 70.80800781 -2.72070312 70.83789062 C-8.16008547 70.89637861 -11.17921475 70.03596553 -15.5 66.4375 C-19.1903939 62.3481446 -20.60531391 59.38435351 -20.69287109 53.90942383 C-20.70893402 52.99449661 -20.72499695 52.0795694 -20.74154663 51.13691711 C-20.78618959 46.94797635 -20.82707537 42.75919174 -20.85009766 38.57006836 C-20.86663288 36.36553371 -20.89389049 34.16105213 -20.93212891 31.95678711 C-20.98710986 28.76908712 -21.00880617 25.58264262 -21.0234375 22.39453125 C-21.04610687 21.41716507 -21.06877625 20.43979889 -21.09213257 19.43281555 C-21.07213602 12.90288364 -19.81212814 8.44615211 -15.5 3.4375 C-10.62274113 -0.1013157 -5.81018824 -0.04969834 0 0 Z M-3.5 14.4375 C-3.6011692 17.52831465 -3.63968558 20.59632555 -3.6328125 23.6875 C-3.63376923 24.61594727 -3.63472595 25.54439453 -3.63571167 26.50097656 C-3.63639355 28.46809965 -3.63453872 30.43522496 -3.63037109 32.40234375 C-3.62502295 35.42453026 -3.63031582 38.44656815 -3.63671875 41.46875 C-3.63605797 43.37500033 -3.63477681 45.28125057 -3.6328125 47.1875 C-3.63483673 48.09790039 -3.63686096 49.00830078 -3.63894653 49.94628906 C-4.03891332 54.01413678 -4.03891332 54.01413678 -2.5 57.4375 C-0.83382885 57.47813832 0.83388095 57.480221 2.5 57.4375 C4.18335939 54.07078122 3.64154289 50.264534 3.6328125 46.5625 C3.63424759 45.24209717 3.63424759 45.24209717 3.63571167 43.89501953 C3.63639276 42.03222584 3.63454343 40.16942977 3.63037109 38.30664062 C3.62502184 35.44916472 3.63031849 32.591846 3.63671875 29.734375 C3.63605796 27.92708299 3.63477677 26.11979107 3.6328125 24.3125 C3.63483673 23.45414551 3.63686096 22.59579102 3.63894653 21.71142578 C3.74642678 17.43949198 3.74642678 17.43949198 2.5 13.4375 C-0.78930404 13.07064303 -0.78930404 13.07064303 -3.5 14.4375 Z " fill="#000000" transform="translate(156.5,15.5625)"/>
<path d="M0 0 C30.98697068 0 30.98697068 0 37.40625 6.3984375 C39.90202515 12.03839996 39.57730612 17.53070093 39.5 23.625 C39.51546875 24.8521875 39.5309375 26.079375 39.546875 27.34375 C39.54171875 28.52195312 39.5365625 29.70015625 39.53125 30.9140625 C39.52673828 31.9860791 39.52222656 33.0580957 39.51757812 34.16259766 C38.88214603 37.64608437 37.76735116 38.85730537 35 41 C34.34 41 33.68 41 33 41 C33.31807617 42.0669812 33.31807617 42.0669812 33.64257812 43.15551758 C34.59925941 46.37327828 35.54969864 49.59284964 36.5 52.8125 C36.83386719 53.93205078 37.16773438 55.05160156 37.51171875 56.20507812 C37.82753906 57.27822266 38.14335938 58.35136719 38.46875 59.45703125 C38.76201172 60.44678955 39.05527344 61.43654785 39.35742188 62.45629883 C40 65 40 65 40 68 C34.39 68 28.78 68 23 68 C21.0625 61.0625 21.0625 61.0625 20.45727539 58.87524414 C19.73506635 55.67421954 19.73506635 55.67421954 18 53 C17.67 57.95 17.34 62.9 17 68 C11.39 68 5.78 68 0 68 C0 45.56 0 23.12 0 0 Z M17 13 C17 20.59 17 28.18 17 36 C24.21839327 32.04191829 24.21839327 32.04191829 24.75390625 27.3359375 C24.69074219 26.02882813 24.62757813 24.72171875 24.5625 23.375 C24.52253906 22.06273437 24.48257813 20.75046875 24.44140625 19.3984375 C24.2394237 15.87931751 24.2394237 15.87931751 22 13 C20.35 13 18.7 13 17 13 Z " fill="#000000" transform="translate(559,17)"/>
<path d="M0 0 C0.77666016 -0.00708984 1.55332031 -0.01417969 2.35351562 -0.02148438 C7.26431566 0.03257185 10.68561985 0.7527781 14.9375 3.4375 C18.49985329 7.38497256 20.05313095 9.78406129 20.11450195 15.05151367 C20.13375481 16.48892159 20.13375481 16.48892159 20.15339661 17.95536804 C20.16078354 18.99490128 20.16817047 20.03443451 20.17578125 21.10546875 C20.183853 22.17364334 20.19192474 23.24181793 20.20024109 24.34236145 C20.21409096 26.60786309 20.22480906 28.87338567 20.23266602 31.13891602 C20.24984421 34.59366842 20.29371925 38.04745544 20.33789062 41.50195312 C20.34802048 43.70311796 20.35653567 45.90429094 20.36328125 48.10546875 C20.38078934 49.13488083 20.39829742 50.16429291 20.41633606 51.22489929 C20.39741873 57.52319732 19.71102611 61.32840004 15.9375 66.4375 C10.68958347 70.38789005 6.47436987 71.12365781 0 71 C-0.79543213 70.99049316 -1.59086426 70.98098633 -2.41040039 70.97119141 C-7.50905666 70.78952782 -11.42668805 70.17404482 -15.65234375 67.1171875 C-20.54980593 61.28364529 -20.51693719 55.60027046 -20.49609375 48.34375 C-20.5013356 47.27886353 -20.50657745 46.21397705 -20.51197815 45.11682129 C-20.51838608 42.87102122 -20.51707733 40.62518753 -20.50854492 38.37939453 C-20.50002839 34.94893554 -20.52882587 31.52013871 -20.56054688 28.08984375 C-20.56215891 25.90364633 -20.56158132 23.71744597 -20.55859375 21.53125 C-20.57544472 19.99821228 -20.57544472 19.99821228 -20.59263611 18.4342041 C-20.53570406 12.60079299 -20.0888843 8.99393421 -16.0625 4.4375 C-10.68340679 0.47083127 -6.57961482 -0.17011515 0 0 Z M-2.0625 13.4375 C-4.51582445 17.1997108 -4.35218756 20.97419126 -4.328125 25.30859375 C-4.33003845 26.06793716 -4.3319519 26.82728058 -4.33392334 27.6096344 C-4.33528171 29.21249728 -4.3316096 30.81537128 -4.32324219 32.41821289 C-4.31255227 34.86304638 -4.32314131 37.30714263 -4.3359375 39.75195312 C-4.33461555 41.31250161 -4.33205243 42.87304964 -4.328125 44.43359375 C-4.33217346 45.16082138 -4.33622192 45.88804901 -4.34039307 46.63731384 C-4.30335232 50.6763237 -3.85099326 53.80057143 -2.0625 57.4375 C0.41016765 57.09305119 0.41016765 57.09305119 2.9375 56.4375 C4.56380024 53.18489953 4.07922565 49.60824171 4.0703125 46.03515625 C4.07126923 45.20165146 4.07222595 44.36814667 4.07321167 43.50938416 C4.07389275 41.74494349 4.07204348 39.98050032 4.06787109 38.21606445 C4.06252853 35.51442834 4.06781503 32.812959 4.07421875 30.11132812 C4.07355782 28.39843713 4.07227636 26.68554624 4.0703125 24.97265625 C4.07233673 24.1632106 4.07436096 23.35376495 4.07644653 22.51979065 C4.06272172 19.23633694 3.98313654 16.57440963 2.9375 13.4375 C1.2875 13.4375 -0.3625 13.4375 -2.0625 13.4375 Z " fill="#000000" transform="translate(533.0625,15.5625)"/>
<path d="M0 0 C1.25683594 0.00322266 2.51367188 0.00644531 3.80859375 0.00976562 C5.12730469 0.01814453 6.44601562 0.02652344 7.8046875 0.03515625 C9.14452961 0.04017136 10.4843735 0.04473424 11.82421875 0.04882812 C15.10941956 0.06064539 18.39453147 0.07712008 21.6796875 0.09765625 C21.54130954 4.38959771 21.39272811 8.68112554 21.2421875 12.97265625 C21.20287109 14.19597656 21.16355469 15.41929688 21.12304688 16.6796875 C21.06020508 18.42958984 21.06020508 18.42958984 20.99609375 20.21484375 C20.95943604 21.29362793 20.92277832 22.37241211 20.88500977 23.48388672 C20.6796875 26.09765625 20.6796875 26.09765625 19.6796875 28.09765625 C15.3896875 27.76765625 11.0996875 27.43765625 6.6796875 27.09765625 C6.6796875 22.47765625 6.6796875 17.85765625 6.6796875 13.09765625 C4.3696875 13.09765625 2.0596875 13.09765625 -0.3203125 13.09765625 C-1.47284127 16.78734906 -1.61357508 19.42771867 -0.3203125 23.09765625 C4.71552766 28.18579491 11.56461774 31.75292177 17.74707031 35.27563477 C19.62144414 36.43604083 21.16768153 37.49236893 22.6796875 39.09765625 C23.46875 42.5859375 23.46875 42.5859375 23.3046875 46.41015625 C23.27648926 47.07515137 23.24829102 47.74014648 23.21923828 48.42529297 C22.88131474 54.15877575 22.2859942 59.27059679 18.25 63.6484375 C13.66885918 67.69397231 10.18647619 68.22212136 4.26171875 68.1953125 C2.38129883 68.19047852 2.38129883 68.19047852 0.46289062 68.18554688 C-0.84744141 68.17716797 -2.15777344 68.16878906 -3.5078125 68.16015625 C-4.84309731 68.15513942 -6.17838391 68.15057684 -7.51367188 68.14648438 C-10.7825713 68.13468329 -14.05144752 68.11674761 -17.3203125 68.09765625 C-17.3203125 59.51765625 -17.3203125 50.93765625 -17.3203125 42.09765625 C-14.1646875 42.22140625 -14.1646875 42.22140625 -10.9453125 42.34765625 C-9.76195312 42.3940625 -8.57859375 42.44046875 -7.359375 42.48828125 C-4.3203125 43.09765625 -4.3203125 43.09765625 -2.9140625 44.87890625 C-1.9767751 48.38140128 -2.19970491 51.47942852 -2.3203125 55.09765625 C0.3196875 55.09765625 2.9596875 55.09765625 5.6796875 55.09765625 C6.0096875 52.45765625 6.3396875 49.81765625 6.6796875 47.09765625 C6.02226562 46.89140625 5.36484375 46.68515625 4.6875 46.47265625 C0.52905588 44.57165323 -2.83878681 41.883024 -6.4453125 39.09765625 C-7.86413075 38.01373024 -9.28338462 36.93037415 -10.703125 35.84765625 C-11.63729248 35.12835938 -11.63729248 35.12835938 -12.59033203 34.39453125 C-14.12808474 33.24175925 -15.72122382 32.16371537 -17.3203125 31.09765625 C-17.62586858 28.11698662 -17.73795651 25.3881294 -17.6953125 22.41015625 C-17.70691406 21.61931641 -17.71851563 20.82847656 -17.73046875 20.01367188 C-17.70082583 14.03074265 -16.88387231 9.00693787 -12.78515625 4.35546875 C-8.01724194 0.81916402 -5.92484269 -0.02668848 0 0 Z " fill="#000000" transform="translate(449.3203125,16.90234375)"/>
<path d="M0 0 C1.20849609 0.00322266 2.41699219 0.00644531 3.66210938 0.00976562 C4.92474609 0.01814453 6.18738281 0.02652344 7.48828125 0.03515625 C9.39963867 0.04192383 9.39963867 0.04192383 11.34960938 0.04882812 C14.50004689 0.06062752 17.65039074 0.07709028 20.80078125 0.09765625 C20.86561392 9.50829851 20.50245044 18.71283083 19.80078125 28.09765625 C12.87078125 27.60265625 12.87078125 27.60265625 5.80078125 27.09765625 C5.80078125 22.47765625 5.80078125 17.85765625 5.80078125 13.09765625 C3.49078125 13.75765625 1.18078125 14.41765625 -1.19921875 15.09765625 C-1.52921875 17.73765625 -1.85921875 20.37765625 -2.19921875 23.09765625 C-1.34880005 23.4997229 -1.34880005 23.4997229 -0.48120117 23.90991211 C1.91802583 25.15868063 4.08305664 26.57079178 6.3125 28.1015625 C7.15232422 28.67712891 7.99214844 29.25269531 8.85742188 29.84570312 C9.72560547 30.44447266 10.59378906 31.04324219 11.48828125 31.66015625 C12.36806641 32.26279297 13.24785156 32.86542969 14.15429688 33.48632812 C20.65576893 37.95264393 20.65576893 37.95264393 21.80078125 39.09765625 C21.95530974 41.84053688 22.03253165 44.54087265 22.05078125 47.28515625 C22.07140625 48.04119141 22.09203125 48.79722656 22.11328125 49.57617188 C22.15242552 55.21784035 21.26410246 59.45883124 17.265625 63.7421875 C12.50604414 67.38186698 10.45459417 68.22222297 4.48046875 68.1953125 C3.22363281 68.19208984 1.96679688 68.18886719 0.671875 68.18554688 C-0.64683594 68.17716797 -1.96554687 68.16878906 -3.32421875 68.16015625 C-4.66406086 68.15514114 -6.00390475 68.15057826 -7.34375 68.14648438 C-10.62892532 68.1346672 -13.91407756 68.11673126 -17.19921875 68.09765625 C-17.19921875 59.51765625 -17.19921875 50.93765625 -17.19921875 42.09765625 C-5.19921875 43.09765625 -5.19921875 43.09765625 -3.19921875 45.09765625 C-2.78515625 47.48046875 -2.78515625 47.48046875 -2.57421875 50.22265625 C-2.49945313 51.13273437 -2.4246875 52.0428125 -2.34765625 52.98046875 C-2.29867188 53.67914063 -2.2496875 54.3778125 -2.19921875 55.09765625 C1.26578125 54.60265625 1.26578125 54.60265625 4.80078125 54.09765625 C5.13078125 51.78765625 5.46078125 49.47765625 5.80078125 47.09765625 C5.22408691 46.824375 4.64739258 46.55109375 4.05322266 46.26953125 C1.81192161 45.10345223 -0.17618228 43.80498385 -2.23828125 42.34765625 C-2.98335938 41.82171875 -3.7284375 41.29578125 -4.49609375 40.75390625 C-5.264375 40.20734375 -6.03265625 39.66078125 -6.82421875 39.09765625 C-7.98824219 38.2778125 -7.98824219 38.2778125 -9.17578125 37.44140625 C-14.93470982 33.36216518 -14.93470982 33.36216518 -17.19921875 31.09765625 C-17.67812312 27.70266695 -17.56960915 24.27258591 -17.57421875 20.84765625 C-17.59871094 19.90535156 -17.62320312 18.96304688 -17.6484375 17.9921875 C-17.6735846 12.01555891 -17.13646789 8.66311212 -13.19921875 4.09765625 C-8.98017804 0.39001441 -5.50822976 -0.02586023 0 0 Z " fill="#000000" transform="translate(283.19921875,16.90234375)"/>
<path d="M0 0 C1.12196777 0.00749268 2.24393555 0.01498535 3.39990234 0.02270508 C5.51066162 0.0636731 5.51066162 0.0636731 7.6640625 0.10546875 C14.4084375 0.19828125 14.4084375 0.19828125 21.2890625 0.29296875 C20.6290625 9.53296875 19.9690625 18.77296875 19.2890625 28.29296875 C14.9990625 28.29296875 10.7090625 28.29296875 6.2890625 28.29296875 C7.371875 28.87820312 8.4546875 29.4634375 9.5703125 30.06640625 C20.2335329 36.41241545 20.2335329 36.41241545 22.08007812 41.45166016 C23.2238675 48.35398914 22.57940344 56.0415959 19.1640625 62.23046875 C16.85149834 65.42724862 13.86529574 66.74344402 10.2890625 68.29296875 C7.12939453 68.63354492 7.12939453 68.63354492 3.796875 68.5859375 C2.59804688 68.57626953 1.39921875 68.56660156 0.1640625 68.55664062 C-1.0734375 68.53150391 -2.3109375 68.50636719 -3.5859375 68.48046875 C-4.84664062 68.46693359 -6.10734375 68.45339844 -7.40625 68.43945312 C-10.50799657 68.404206 -13.60952242 68.35040236 -16.7109375 68.29296875 C-16.7109375 59.71296875 -16.7109375 51.13296875 -16.7109375 42.29296875 C-4.7109375 43.29296875 -4.7109375 43.29296875 -3.7109375 44.29296875 C-3.47729869 46.14188821 -3.29790115 47.99784906 -3.1484375 49.85546875 C-3.06464844 50.86738281 -2.98085938 51.87929687 -2.89453125 52.921875 C-2.83394531 53.70433594 -2.77335937 54.48679688 -2.7109375 55.29296875 C0.7540625 54.79796875 0.7540625 54.79796875 4.2890625 54.29296875 C4.6190625 52.31296875 4.9490625 50.33296875 5.2890625 48.29296875 C4.50257324 47.72582153 4.50257324 47.72582153 3.70019531 47.1472168 C1.31287108 45.42535523 -1.074037 43.70291766 -3.4609375 41.98046875 C-4.2859375 41.38556641 -5.1109375 40.79066406 -5.9609375 40.17773438 C-6.76015625 39.60087891 -7.559375 39.02402344 -8.3828125 38.4296875 C-9.1159668 37.90076904 -9.84912109 37.37185059 -10.60449219 36.8269043 C-11.29961914 36.32070557 -11.99474609 35.81450684 -12.7109375 35.29296875 C-13.44924805 34.84397217 -14.18755859 34.39497559 -14.94824219 33.93237305 C-16.7109375 32.29296875 -16.7109375 32.29296875 -17.22851562 29.82861328 C-17.23302734 28.87067871 -17.23753906 27.91274414 -17.2421875 26.92578125 C-17.24734375 25.87519531 -17.2525 24.82460938 -17.2578125 23.7421875 C-17.24234375 22.64519531 -17.226875 21.54820313 -17.2109375 20.41796875 C-17.22640625 19.32871094 -17.241875 18.23945312 -17.2578125 17.1171875 C-17.21922267 9.23521437 -17.21922267 9.23521437 -15.0546875 5.22265625 C-10.2467099 1.26408803 -6.19832198 -0.08529801 0 0 Z M-0.7109375 13.29296875 C-2.80534563 16.69638196 -3.37123246 19.33119899 -2.7109375 23.29296875 C0.84930585 26.36910511 0.84930585 26.36910511 5.2890625 27.29296875 C5.2890625 22.67296875 5.2890625 18.05296875 5.2890625 13.29296875 C3.3090625 13.29296875 1.3290625 13.29296875 -0.7109375 13.29296875 Z " fill="#000000" transform="translate(22.7109375,16.70703125)"/>
<path d="M0 0 C12.54 0 25.08 0 38 0 C38 4.29 38 8.58 38 13 C31.07 13 24.14 13 17 13 C17 20.59 17 28.18 17 36 C23.93 36 30.86 36 38 36 C38 40.29 38 44.58 38 49 C31.07 49 24.14 49 17 49 C17 50.98 17 52.96 17 55 C23.93 55 30.86 55 38 55 C38 59.29 38 63.58 38 68 C25.46 68 12.92 68 0 68 C-0.0825 64.761875 -0.165 61.52375 -0.25 58.1875 C-0.54235834 50.20580962 -1.35284836 43.24341279 -5 36 C-3.35 36 -1.7 36 0 36 C0 24.12 0 12.24 0 0 Z " fill="#000000" transform="translate(48,17)"/>
<path d="M0 0 C11.22 0 22.44 0 34 0 C34 4.62 34 9.24 34 14 C28.39 13.67 22.78 13.34 17 13 C17 26.53 17 40.06 17 54 C22.61 54.33 28.22 54.66 34 55 C34 59.29 34 63.58 34 68 C30.29088058 68.1082077 26.58493544 68.18742278 22.875 68.25 C21.82828125 68.28351563 20.7815625 68.31703125 19.703125 68.3515625 C13.44138584 68.43082502 9.73984163 68.2311757 5 64 C0.96661036 59.53056823 -0.12690083 56.47086827 -0.11352539 50.51879883 C-0.11344986 49.39786331 -0.11337433 48.2769278 -0.11329651 47.12202454 C-0.10813522 45.91257675 -0.10297394 44.70312897 -0.09765625 43.45703125 C-0.0962413 42.21829758 -0.09482635 40.9795639 -0.09336853 39.70329285 C-0.08871602 36.41368463 -0.0797339 33.1241254 -0.06866455 29.83453369 C-0.05842629 26.47628388 -0.05381092 23.11802667 -0.04882812 19.75976562 C-0.03864157 13.17313798 -0.01906712 6.58663193 0 0 Z " fill="#000000" transform="translate(182,17)"/>
<path d="M0 0 C11.22 0 22.44 0 34 0 C34 4.62 34 9.24 34 14 C28.39 13.67 22.78 13.34 17 13 C16.97535295 18.67830078 16.95716538 24.35657069 16.94506836 30.03491211 C16.94002744 31.96818585 16.93319481 33.90145576 16.92456055 35.8347168 C16.91248435 38.60726872 16.90676943 41.37977041 16.90234375 44.15234375 C16.89718246 45.02213364 16.89202118 45.89192352 16.88670349 46.78807068 C16.88650815 48.85905814 16.93791832 50.92994324 17 53 C19.05922402 55.05922402 23.21708124 54.41427579 26.0625 54.5625 C27.20041992 54.62727539 27.20041992 54.62727539 28.36132812 54.69335938 C30.24065438 54.79973633 32.12030244 54.90039934 34 55 C34 59.29 34 63.58 34 68 C30.31170398 68.10839074 26.62662349 68.18751031 22.9375 68.25 C21.89916016 68.28351563 20.86082031 68.31703125 19.79101562 68.3515625 C13.2649432 68.43443326 9.19843374 68.08303508 4 64 C-1.30646695 58.31445692 -0.51484831 52.17396229 -0.390625 44.7265625 C-0.38496521 43.44768158 -0.37930542 42.16880066 -0.37347412 40.85116577 C-0.35491848 37.46744858 -0.31904526 34.08482908 -0.2746582 30.70141602 C-0.23358169 27.24244798 -0.21521698 23.78336274 -0.1953125 20.32421875 C-0.15466851 13.54886495 -0.07636668 6.77542177 0 0 Z " fill="#000000" transform="translate(476,17)"/>
<path d="M0 0 C10.56 0 21.12 0 32 0 C32 3.3 32 6.6 32 10 C29.69 10 27.38 10 25 10 C25 25.51 25 41.02 25 57 C27.31 57 29.62 57 32 57 C32 60.63 32 64.26 32 68 C22.76 68 13.52 68 4 68 C0 60 0 60 0 58 C4.455 57.505 4.455 57.505 9 57 C9 41.49 9 25.98 9 10 C7.35 10 5.7 10 4 10 C3.32845067 8.71086513 2.66291141 7.41859796 2 6.125 C1.62875 5.40570312 1.2575 4.68640625 0.875 3.9453125 C0 2 0 2 0 0 Z " fill="#000000" transform="translate(396,17)"/>
<path d="M0 0 C2.81198651 0.18010657 3.88214437 0.8866957 5.921875 2.84765625 C6.52515625 3.57855469 7.1284375 4.30945313 7.75 5.0625 C8.36359375 5.79597656 8.9771875 6.52945312 9.609375 7.28515625 C10.06828125 7.85105469 10.5271875 8.41695312 11 9 C9.84824323 11.42636759 8.77712824 13.27319764 7.0625 15.375 C4.91075519 18.1135843 3.46512401 20.84998338 2 24 C-0.51815182 22.74092409 -0.69260426 21.78525333 -1.8125 19.25 C-3.68124217 15.32916737 -5.76783073 12.87303936 -9 10 C-7.8758824 8.70756532 -6.75067408 7.41607925 -5.625 6.125 C-4.99851562 5.40570312 -4.37203125 4.68640625 -3.7265625 3.9453125 C-2.52573166 2.5923402 -1.2791655 1.2791655 0 0 Z " fill="#000000" transform="translate(319,14)"/>
</svg>
